<?xml version="1.0" standalone="no"?>
<!DOCTYPE svg PUBLIC "-//W3C//DTD SVG 20010904//EN"
 "http://www.w3.org/TR/2001/REC-SVG-20010904/DTD/svg10.dtd">
<svg version="1.0" xmlns="http://www.w3.org/2000/svg"
 width="141.000000pt" height="141.000000pt" viewBox="0 0 141.000000 141.000000"
 preserveAspectRatio="xMidYMid meet">
<metadata>
Created by potrace 1.14, written by Peter Selinger 2001-2017
</metadata>
<g transform="translate(0.000000,141.000000) scale(0.100000,-0.100000)"
fill="#000000" stroke="none">
<path d="M533 1074 c-51 -25 -68 -30 -59 -15 9 14 -19 32 -38 25 -15 -6 -16
-25 -14 -168 3 -158 3 -161 26 -164 26 -4 24 -11 27 100 2 68 7 94 24 121 40
65 132 86 198 46 48 -30 65 -69 68 -163 2 -45 4 -87 4 -94 1 -8 10 -12 24 -10
21 3 22 9 25 88 3 92 -12 148 -51 193 -56 63 -156 81 -234 41z"/>
<path d="M337 863 c-4 -3 -7 -86 -7 -184 0 -154 2 -178 16 -183 30 -11 40 10
39 84 -1 42 3 70 10 71 44 4 267 0 272 -4 3 -4 5 -36 5 -71 0 -71 15 -99 42
-77 11 10 14 47 15 174 0 181 -3 197 -29 197 -22 0 -30 -27 -30 -102 l0 -56
-62 -4 c-35 -1 -99 -1 -143 2 l-80 5 0 65 c0 36 -4 71 -8 78 -9 13 -30 16 -40
5z"/>
<path d="M895 769 c-38 -11 -96 -65 -114 -104 -8 -18 -15 -76 -17 -142 -2 -62
-8 -122 -15 -135 -52 -98 -193 -104 -251 -10 -17 28 -22 52 -24 126 -1 50 -2
95 -3 99 -1 5 -11 7 -23 5 -22 -3 -23 -8 -26 -93 -3 -98 10 -150 50 -196 71
-81 214 -85 289 -6 43 44 56 92 58 204 1 89 4 111 23 140 21 36 82 71 115 68
52 -5 85 -20 113 -51 31 -36 32 -39 34 -144 1 -63 2 -65 29 -68 l27 -3 0 83
c-1 123 -35 186 -122 223 -41 16 -96 18 -143 4z"/>
</g>
</svg>
